<svg xmlns="http://www.w3.org/2000/svg" viewBox="0 0 48 48">
  <path fill="#0288D1" d="M42 37a5 5 0 0 1-5 5H11a5 5 0 0 1-5-5V11a5 5 0 0 1 5-5h26a5 5 0 0 1 5 5v26z"/>
  <path fill="#FFF" d="M12 19h5v17h-5zm2.485-2h-.028C12.965 17 12 15.888 12 14.499 12 13.08 12.995 12 14.514 12c1.521 0 2.458 1.08 2.486 2.499C17 15.887 16.035 17 14.485 17zM36 36h-5v-9.099c0-2.198-1.225-3.698-3.192-3.698-1.501 0-2.313 1.012-2.707 1.99-.144.35-.101.858-.101 1.367V36h-5s.07-16 0-17h5v2.616C25.721 21.865 27.85 19.001 31.738 19.001 36.508 19.001 36 22.427 36 26.901V36z"/>
</svg>
